<svg width="38" height="36" viewBox="0 0 38 36" fill="none" xmlns="http://www.w3.org/2000/svg">
<path d="M13.3914 2.60022C9.20758 3.9454 5.64253 6.88743 3.65682 10.6105C2.96413 11.895 2.4654 13.2575 2.16061 14.6721C1.40327 18.1783 1.92971 21.9187 3.64759 25.1124C4.76513 27.1953 6.37217 29.0525 8.3117 30.5018C10.1496 31.873 12.2831 32.8971 14.5551 33.4612C17.4183 34.1815 20.4661 34.1642 23.3477 33.548C25.9522 32.9839 28.4182 31.8123 30.3854 30.1113C32.4635 28.3148 33.9505 25.9542 34.7355 23.4114C35.5945 20.643 35.7053 17.6836 35.1696 14.837C29.7851 14.837 24.3914 14.837 19.0068 14.837C19.0068 16.9372 19.0068 19.0374 19.0068 21.1376C22.1286 21.1376 25.2503 21.1376 28.372 21.1376C28.0118 23.1511 26.7373 24.9909 24.9363 26.1278C23.8003 26.8481 22.498 27.3081 21.1496 27.5337C19.8011 27.7507 18.3973 27.7767 17.0488 27.5251C15.6727 27.2647 14.3704 26.7266 13.2252 25.9716C11.3965 24.7653 10.0019 23.0035 9.2907 21.0161C8.56107 18.994 8.55183 16.7463 9.2907 14.7329C9.80791 13.3096 10.6576 11.9991 11.7844 10.923C13.1698 9.58647 14.9708 8.63182 16.9195 8.24129C18.582 7.9115 20.3368 7.97225 21.9623 8.43222C23.3477 8.82275 24.6222 9.54307 25.6659 10.4804C26.7188 9.491 27.7717 8.50165 28.8246 7.51229C29.3787 6.9829 29.9606 6.47086 30.4963 5.92411C28.8985 4.53554 27.0143 3.416 24.964 2.70436C21.2696 1.41993 17.1135 1.3939 13.3914 2.60022Z" fill="white"/>
<path d="M13.391 2.60022C17.1039 1.39389 21.2692 1.41993 24.9636 2.69568C27.014 3.40732 28.8888 4.51818 30.4959 5.91543C29.9602 6.46218 29.3783 6.97422 28.8242 7.50361C27.7713 8.49297 26.7184 9.48232 25.6655 10.4717C24.6219 9.53439 23.3473 8.82275 21.9619 8.42354C20.3364 7.96357 18.5816 7.89414 16.9191 8.23261C14.9796 8.62314 13.1786 9.57779 11.784 10.9143C10.6572 11.9818 9.80752 13.3009 9.29031 14.7242C7.41543 13.353 5.54055 11.9904 3.65643 10.6192C5.64215 6.88743 9.20719 3.94539 13.391 2.60022Z" fill="#EA4335"/>
<path d="M2.16983 14.6634C2.47461 13.2575 2.97335 11.8863 3.66604 10.6019C5.54092 11.9731 7.4158 13.3356 9.29992 14.7068C8.56105 16.7289 8.56105 18.9767 9.29992 20.9901C7.42504 22.3613 5.55016 23.7325 3.67527 25.0951C1.93893 21.91 1.41249 18.1696 2.16983 14.6634Z" fill="#FBBC05"/>
<path d="M19.007 14.8283C24.3915 14.8283 29.7852 14.8283 35.1697 14.8283C35.7054 17.6662 35.5854 20.6256 34.7357 23.4027C33.9506 25.9456 32.4636 28.3061 30.3856 30.1026C28.5661 28.7748 26.7466 27.447 24.9272 26.1191C26.7282 24.9822 28.0027 23.1424 28.3629 21.129C25.2412 21.129 22.1195 21.129 18.9977 21.129C19.007 19.0287 19.007 16.9285 19.007 14.8283Z" fill="#4285F4"/>
<path d="M3.65643 25.1038C5.53131 23.7412 7.4062 22.37 9.28108 20.9988C10.0015 22.9862 11.3869 24.7479 13.2156 25.9543C14.3608 26.7093 15.6723 27.2474 17.0392 27.5077C18.3876 27.7681 19.7823 27.7334 21.1399 27.5164C22.4884 27.2908 23.7906 26.8308 24.9266 26.1105C26.7461 27.4383 28.5656 28.7661 30.385 30.0939C28.4178 31.8036 25.9518 32.9665 23.3473 33.5306C20.4657 34.1468 17.4179 34.1642 14.5548 33.4439C12.2827 32.8797 10.1492 31.8644 8.31131 30.4845C6.38101 29.0438 4.77397 27.1866 3.65643 25.1038Z" fill="#34A853"/>
</svg>
